<svg xmlns="http://www.w3.org/2000/svg" width="1667" height="1667" viewBox="0 0 1667 1667" version="1.1"><path d="M 817.008 322.583 C 767.580 327.967, 720.736 344.382, 683.073 369.516 C 642.948 396.293, 608.166 437.652, 587.218 483.500 C 574.647 511.013, 564.016 547.874, 559.099 581 C 553.288 620.144, 552.630 677.689, 557.600 712 C 564.510 759.697, 581.821 807.815, 603.875 840.624 C 626.346 874.055, 655.013 901.795, 688.408 922.425 C 693.684 925.684, 698 928.658, 698 929.033 C 698 929.408, 655.881 1022.816, 604.403 1136.607 C 552.924 1250.398, 510.571 1344.290, 510.284 1345.257 C 509.790 1346.922, 513.479 1347, 581.556 1346.757 L 653.348 1346.500 737.947 1154.500 C 784.477 1048.900, 822.900 961.938, 823.332 961.250 C 823.945 960.275, 836.092 960, 878.559 960 L 933 960 933 1153.508 L 933 1347.015 995.250 1346.758 L 1057.500 1346.500 1057.751 833.750 L 1058.002 321 943.751 321.111 C 854.804 321.198, 826.733 321.524, 817.008 322.583 M 829 430.088 C 792.716 434.745, 757.814 453.041, 737.823 477.883 C 710.771 511.499, 696.654 549.326, 689.825 606.500 C 687.947 622.218, 688.261 676.564, 690.324 692.914 C 696.148 739.082, 707.579 771.707, 727.220 798.224 C 746.236 823.896, 768.836 838.641, 801.256 846.525 C 821.305 851.401, 830.256 852, 883.051 852 L 932 852 932 640.500 L 932 429 883.750 429.127 C 857.212 429.197, 832.575 429.629, 829 430.088" stroke="none" fill="#fcfbfb" fill-rule="evenodd"/><path d="M 793.500 0.681 C 639.601 8.443, 495.696 56.079, 368.559 141.348 C 323.331 171.681, 282.172 205.671, 242.499 245.451 C 110.762 377.543, 27.503 549.025, 5.540 733.500 C 1.025 771.420, 0.499 782.097, 0.531 835 C 0.563 887.822, 1.208 899.894, 6.060 938.500 C 24.052 1081.653, 78.857 1217.272, 165.387 1332.762 C 190.911 1366.828, 212.390 1391.523, 243.934 1423.066 C 275.477 1454.610, 300.172 1476.089, 334.238 1501.613 C 449.715 1588.133, 585.363 1642.950, 728.500 1660.940 C 767.106 1665.792, 779.178 1666.437, 832 1666.469 C 884.903 1666.501, 895.580 1665.975, 933.500 1661.460 C 1158.675 1634.651, 1363.228 1516.478, 1500.422 1333.941 C 1595.235 1207.794, 1651.916 1058.116, 1664.496 900.671 C 1665.323 890.316, 1666.059 878.616, 1666.132 874.671 C 1666.238 868.888, 1666.406 868.177, 1667 871 C 1667.405 872.925, 1667.725 855.600, 1667.711 832.500 C 1667.697 809.400, 1667.415 792.750, 1667.084 795.500 C 1666.642 799.167, 1666.287 796.456, 1665.751 785.326 C 1663.770 744.188, 1656.791 694.706, 1646.424 648.306 C 1619.448 527.560, 1561.939 408.680, 1483.457 311.430 C 1448.257 267.812, 1399.188 218.743, 1355.570 183.543 C 1288.486 129.405, 1208.616 83.765, 1127.500 53.216 C 1048.070 23.302, 964.117 5.737, 878 1.015 C 861.425 0.107, 809 -0.101, 793.500 0.681 M 817.008 322.583 C 767.580 327.967, 720.736 344.382, 683.073 369.516 C 642.948 396.293, 608.166 437.652, 587.218 483.500 C 574.647 511.013, 564.016 547.874, 559.099 581 C 553.288 620.144, 552.630 677.689, 557.600 712 C 564.510 759.697, 581.821 807.815, 603.875 840.624 C 626.346 874.055, 655.013 901.795, 688.408 922.425 C 693.684 925.684, 698 928.658, 698 929.033 C 698 929.408, 655.881 1022.816, 604.403 1136.607 C 552.924 1250.398, 510.571 1344.290, 510.284 1345.257 C 509.790 1346.922, 513.479 1347, 581.556 1346.757 L 653.348 1346.500 737.947 1154.500 C 784.477 1048.900, 822.900 961.938, 823.332 961.250 C 823.945 960.275, 836.092 960, 878.559 960 L 933 960 933 1153.508 L 933 1347.015 995.250 1346.758 L 1057.500 1346.500 1057.751 833.750 L 1058.002 321 943.751 321.111 C 854.804 321.198, 826.733 321.524, 817.008 322.583 M 829 430.088 C 792.716 434.745, 757.814 453.041, 737.823 477.883 C 710.771 511.499, 696.654 549.326, 689.825 606.500 C 687.947 622.218, 688.261 676.564, 690.324 692.914 C 696.148 739.082, 707.579 771.707, 727.220 798.224 C 746.236 823.896, 768.836 838.641, 801.256 846.525 C 821.305 851.401, 830.256 852, 883.051 852 L 932 852 932 640.500 L 932 429 883.750 429.127 C 857.212 429.197, 832.575 429.629, 829 430.088 M 0.458 833.500 C 0.458 856.600, 0.589 865.907, 0.749 854.183 C 0.909 842.458, 0.909 823.558, 0.749 812.183 C 0.588 800.807, 0.457 810.400, 0.458 833.500" stroke="none" fill="#fc3434" fill-rule="evenodd"/></svg>